<?xml version='1.0' encoding='UTF-8' standalone='no'?>
<svg xmlns="http://www.w3.org/2000/svg" xmlns:inkscape="http://www.inkscape.org/namespaces/inkscape" version="1.1" width="5495.879" height="2016.7521" viewBox="0 0 5495.879 2016.7521" preserveAspectRatio="xMidYMid meet" role="img" aria-label="SoaBra logo, white monochrome" inkscape:export-xdpi="72" inkscape:export-ydpi="72">
  <title>SoaBra logo - white</title>
  <g id="soabra-logo-monochrome">
    <path id="path1" d="M 4057.9453 0 C 3795.0351 0 3581.9136 213.01518 3581.9136 475.91748 C 3581.9136 617.71048 3643.9337 745.00049 3742.2188 832.12939 L 3592.1953 832.12939 L 3592.1953 1616.5269 C 3592.1953 1660.691 3609.1919 1700.8477 3637.1177 1730.7188 L 3875.0229 2007.1597 C 3891.5854 2026.4215 3923.187 2014.7388 3923.187 1989.2974 L 3923.187 1784.1914 L 5019.8481 1784.1914 C 5282.7583 1784.1914 5495.8784 1571.0699 5495.8784 1308.1597 C 5495.8784 1166.3707 5433.8559 1039.1914 5335.5747 951.94922 L 5485.7036 951.94922 L 5485.7036 0 L 4057.9453 0 z M 4203.1831 1311.9448 C 4205.1323 1311.9448 4206.7574 1312.601 4208.1636 1314.0073 C 4209.5738 1315.4135 4210.3315 1317.1441 4210.3315 1319.0933 C 4210.3315 1321.0425 4209.5738 1322.6606 4208.1636 1324.0708 C 4206.7574 1325.477 4205.1323 1326.2344 4203.1831 1326.2344 C 4201.1284 1326.2344 4199.3979 1325.5854 4197.8862 1324.1792 C 4196.4799 1322.7729 4195.7183 1321.0425 4195.7183 1319.0933 C 4195.7183 1317.1441 4196.4799 1315.4135 4197.8862 1314.0073 C 4199.3979 1312.601 4201.1284 1311.9448 4203.1831 1311.9448 z M 4438.938 1311.9448 C 4440.8872 1311.9448 4442.5123 1312.601 4443.9185 1314.0073 C 4445.3248 1315.4135 4446.0864 1317.1441 4446.0864 1319.0933 C 4446.0864 1321.0425 4445.3248 1322.6606 4443.9185 1324.0708 C 4442.5123 1325.477 4440.8872 1326.2344 4438.938 1326.2344 C 4436.8833 1326.2344 4435.1523 1325.5854 4433.6367 1324.1792 C 4432.2304 1322.7729 4431.4731 1321.0425 4431.4731 1319.0933 C 4431.4731 1317.1441 4432.2304 1315.4135 4433.6367 1314.0073 C 4435.1523 1312.601 4436.8833 1311.9448 4438.938 1311.9448 z M 4039.2144 1314.0161 C 4045.8238 1314.0161 4051.3399 1315.2032 4055.6719 1317.4805 C 4060.1055 1319.754 4063.3555 1322.5698 4065.4102 1326.1362 C 4067.4727 1329.6049 4068.5464 1333.2846 4068.5464 1337.0698 L 4068.5464 1337.7188 L 4053.8276 1337.7188 L 4053.8276 1337.0698 C 4053.8276 1335.5542 4053.2885 1334.0385 4052.3159 1332.5229 C 4051.2338 1331.0112 4049.6098 1329.816 4047.5552 1328.8433 C 4045.3872 1327.8668 4042.5699 1327.3242 4039.2144 1327.3242 C 4035.9722 1327.3242 4033.2623 1327.8668 4031.1021 1328.8433 C 4028.8248 1329.816 4027.3131 1331.0112 4026.2271 1332.5229 C 4025.2584 1334.0385 4024.7153 1335.5542 4024.7153 1337.0698 C 4024.7153 1338.9135 4025.145 1340.3208 4026.1216 1341.6138 C 4026.9888 1342.8052 4028.289 1343.7817 4030.125 1344.6489 C 4031.8554 1345.4067 4034.1284 1346.0543 4036.8354 1346.5972 L 4039.0034 1346.918 L 4039.2144 1346.918 C 4044.9566 1347.7852 4049.8248 1348.9721 4054.0474 1350.3823 C 4058.2701 1351.7885 4061.7305 1354.063 4064.543 1357.1997 C 4067.3594 1360.3442 4068.7661 1364.3481 4068.7661 1369.4341 C 4068.7661 1373.3325 4067.6831 1377.2222 4065.6284 1380.9097 C 4063.4604 1384.5894 4060.2187 1387.6138 4055.7773 1390.0005 C 4051.3398 1392.3794 4045.7105 1393.5659 4039.1089 1393.5659 C 4032.5113 1393.5659 4026.9889 1392.3794 4022.5474 1390.0005 C 4018.0045 1387.6138 4014.7578 1384.4765 4012.6992 1380.7969 C 4010.539 1377.0117 4009.5586 1373.1129 4009.5586 1369.2144 L 4024.2817 1369.2144 C 4024.2817 1371.0582 4024.8204 1372.7895 4025.9063 1374.52 C 4026.8828 1376.145 4028.6138 1377.5547 4030.7739 1378.6289 C 4033.0473 1379.7148 4035.8589 1380.3677 4039.2144 1380.3677 C 4042.5699 1380.3677 4045.3872 1379.8237 4047.5552 1378.7417 C 4049.7192 1377.6596 4051.3394 1376.2505 4052.4214 1374.6255 C 4053.5035 1372.895 4054.0474 1371.1645 4054.0474 1369.4341 C 4054.0474 1367.4849 4053.2895 1365.9726 4051.8794 1364.7773 C 4050.3677 1363.5859 4048.6363 1362.7231 4046.4683 1362.1802 C 4044.4136 1361.6411 4041.9253 1360.9917 4039.0034 1360.5542 C 4038.0268 1360.3432 4037.0547 1360.1255 4036.0781 1360.0122 L 4034.4536 1359.6914 C 4030.02 1358.7187 4026.0122 1357.418 4022.4419 1355.9063 C 4018.8716 1354.3829 4015.9487 1352.1138 4013.562 1348.9731 C 4011.187 1345.9419 4009.9966 1341.937 4009.9966 1337.0698 C 4009.9966 1333.2846 4010.9687 1329.6049 4013.1328 1326.1362 C 4015.1875 1322.5698 4018.4375 1319.754 4022.8711 1317.4805 C 4027.207 1315.2032 4032.7222 1314.0161 4039.2144 1314.0161 z M 4279.3081 1315.3169 L 4294.0269 1315.3169 L 4294.0269 1392.2739 L 4279.3081 1392.2739 L 4279.3081 1315.3169 z M 4574.688 1315.3169 L 4589.4067 1315.3169 L 4589.4067 1392.2739 L 4574.688 1392.2739 L 4574.688 1315.3169 z M 3800.9531 1315.3359 L 3859.8354 1315.3359 L 3859.8354 1328.6484 L 3837.7573 1328.6484 L 3837.7573 1392.293 L 3823.0386 1392.293 L 3823.0386 1328.6484 L 3800.9531 1328.6484 L 3800.9531 1315.3359 z M 3864.5273 1315.4136 L 3879.2461 1315.4136 L 3879.2461 1338.8979 C 3879.2461 1341.9331 3878.2656 1346.1518 3876.2109 1351.4487 L 3878.1606 1351.4487 C 3879.2466 1347.4487 3881.1949 1344.3082 3883.7886 1342.0386 C 3886.3863 1339.7652 3889.4175 1338.3599 3892.6597 1337.7114 C 3896.0191 1337.0552 3899.1557 1337.1684 3902.187 1337.9224 C 3905.9799 1338.7934 3909.1168 1340.629 3911.7144 1343.2266 C 3914.3121 1345.8243 3916.1523 1348.7496 3917.3438 1352.105 C 3918.5313 1355.3472 3919.1792 1358.4878 3919.1792 1361.6323 L 3919.1792 1392.2578 L 3904.4604 1392.2578 L 3904.4604 1362.3867 C 3904.4604 1358.8164 3903.4888 1355.7852 3901.645 1353.293 C 3899.8091 1350.8048 3896.8828 1349.3984 3892.9922 1349.1797 C 3890.0664 1349.0742 3887.5747 1349.5073 3885.52 1350.6987 C 3883.5708 1351.7807 3882.1645 1353.4028 3881.1958 1355.3481 C 3880.3286 1357.2974 3879.6723 1359.5708 3879.4614 1362.063 C 3879.4614 1364.227 3879.3516 1366.3872 3879.3516 1368.5552 C 3879.3516 1370.7231 3879.2461 1373.1011 3879.2461 1375.5894 L 3879.2461 1392.2578 L 3864.5273 1392.2578 L 3864.5273 1315.4136 z M 4101.7383 1337.3086 C 4106.8242 1337.3086 4111.5855 1338.6094 4115.9136 1341.0938 C 4120.1363 1343.6953 4123.5976 1347.0503 4126.0898 1351.3784 C 4128.5781 1355.601 4129.8794 1360.3638 4129.8794 1365.4497 C 4129.8794 1370.6411 4128.5781 1375.3013 4126.0898 1379.6294 C 4123.5976 1383.8481 4120.1363 1387.313 4115.9136 1389.8013 C 4111.5855 1392.4028 4106.8242 1393.5938 4101.7383 1393.5938 C 4096.6523 1393.5938 4091.8873 1392.4028 4087.6685 1389.8013 C 4083.3326 1387.313 4079.8716 1383.8481 4077.3794 1379.6294 C 4074.8911 1375.3013 4073.5942 1370.6411 4073.5942 1365.4497 C 4073.5942 1360.3638 4074.8911 1355.601 4077.3794 1351.3784 C 4079.8716 1347.0503 4083.3326 1343.6954 4087.6685 1341.0938 C 4091.8873 1338.6095 4096.6523 1337.3086 4101.7383 1337.3086 z M 4244.9414 1337.3086 C 4250.0273 1337.3086 4254.7934 1338.6094 4259.1255 1341.0938 C 4263.3481 1343.6953 4266.8081 1347.0503 4269.3003 1351.3784 C 4271.7885 1355.601 4273.0854 1360.3638 4273.0854 1365.4497 C 4273.0854 1370.6411 4271.7885 1375.3013 4269.3003 1379.6294 C 4266.8081 1383.8481 4263.3481 1387.313 4259.1255 1389.8013 C 4254.7934 1392.4028 4250.0273 1393.5938 4244.9414 1393.5938 C 4239.8554 1393.5938 4235.0942 1392.4028 4230.8716 1389.8013 C 4226.5434 1387.313 4223.0825 1383.8481 4220.5942 1379.6294 C 4218.102 1375.3013 4216.8091 1370.6411 4216.8091 1365.4497 C 4216.8091 1360.3638 4218.102 1355.601 4220.5942 1351.3784 C 4223.0825 1347.0503 4226.5434 1343.6954 4230.8716 1341.0938 C 4235.0942 1338.6095 4239.8554 1337.3086 4244.9414 1337.3086 z M 4328.4888 1337.3086 C 4333.5747 1337.3086 4338.3282 1338.6094 4342.6641 1341.0938 C 4346.8829 1343.6953 4350.3476 1347.0503 4352.8359 1351.3784 C 4355.3281 1355.601 4356.6211 1360.3638 4356.6211 1365.4497 C 4356.6211 1370.6411 4355.3281 1375.3013 4352.8359 1379.6294 C 4350.3476 1383.8481 4346.8829 1387.313 4342.6641 1389.8013 C 4338.3282 1392.4028 4333.5747 1393.5938 4328.4888 1393.5938 C 4323.3989 1393.5938 4318.6373 1392.4028 4314.4146 1389.8013 C 4310.0826 1387.313 4306.6167 1383.8481 4304.1284 1379.6294 C 4301.6362 1375.3013 4300.3433 1370.6411 4300.3433 1365.4497 C 4300.3433 1360.3638 4301.6362 1355.601 4304.1284 1351.3784 C 4306.6167 1347.0503 4310.0826 1343.6954 4314.4146 1341.0938 C 4318.6373 1338.6095 4323.3989 1337.3086 4328.4888 1337.3086 z M 4385.8286 1337.3203 C 4389.395 1337.3203 4392.5395 1338.0748 4395.4614 1339.481 C 4398.2739 1340.8873 4400.5468 1342.7299 4402.2773 1345.1089 C 4403.9023 1347.3823 4404.9838 1349.8706 4405.3081 1352.3628 L 4407.2578 1352.3628 C 4406.0703 1349.0073 4405.418 1345.977 4405.418 1343.1606 C 4405.418 1341.9731 4405.8516 1340.8862 4406.7188 1340.0229 C 4407.5819 1339.0503 4408.6635 1338.6138 4409.9604 1338.6138 L 4421.9766 1338.6138 L 4421.9766 1351.9336 L 4415.5898 1351.9336 C 4414.9414 1351.9336 4414.3985 1352.145 4413.9727 1352.688 C 4413.4298 1353.1216 4413.2109 1353.6641 4413.2109 1354.418 L 4413.2109 1361.9956 C 4413.2109 1366.7573 4412.1284 1371.0859 4409.9604 1374.7734 C 4407.8003 1378.4531 4404.7695 1381.3716 4400.8711 1383.3208 C 4396.9726 1385.3755 4392.4302 1386.3516 4387.3403 1386.3516 C 4387.3047 1386.3516 4387.2704 1386.3487 4387.2349 1386.3486 L 4387.2349 1386.3516 L 4375.5425 1386.3516 C 4374.5699 1386.3516 4373.812 1386.563 4373.269 1386.895 C 4372.7299 1387.2192 4372.4062 1387.7622 4372.4063 1388.4067 C 4372.4062 1389.1684 4372.7299 1389.7071 4373.269 1390.0313 C 4373.812 1390.3554 4374.5699 1390.5747 4375.5425 1390.5747 L 4388.5313 1390.5747 C 4394.1602 1390.5747 4399.3589 1391.2221 4403.9019 1392.7339 C 4408.4488 1394.1401 4412.0234 1396.2031 4414.6172 1398.7969 C 4417.2148 1401.3945 4418.5151 1404.2105 4418.5151 1407.3472 C 4418.5151 1410.484 4417.2148 1413.4101 4414.6172 1415.8945 C 4412.0234 1418.5 4408.4488 1420.5542 4403.9019 1421.9604 C 4399.3589 1423.4721 4394.269 1424.1284 4388.644 1424.1284 C 4382.7963 1424.1284 4377.6054 1423.5864 4373.0508 1422.2856 C 4368.5078 1421.0942 4364.9409 1419.2535 4362.3354 1416.98 C 4359.7378 1414.7066 4358.4448 1412.2148 4358.4448 1409.4023 C 4358.4448 1406.9179 4359.1987 1404.8559 4360.8237 1403.1255 C 4362.3354 1401.395 4364.1798 1400.0938 4366.3477 1399.2305 C 4368.5079 1398.4766 4370.6758 1397.9332 4372.8398 1397.7144 L 4373.0508 1397.7144 L 4373.0508 1395.6606 L 4369.2656 1395.6606 C 4366.7734 1395.6606 4364.8277 1395.1167 4363.5308 1393.9292 C 4362.1246 1392.7339 4361.4727 1391.0039 4361.4727 1388.8359 C 4361.4727 1386.8945 4362.1246 1385.3755 4363.5308 1384.188 C 4364.8277 1383.102 4366.7734 1382.5591 4369.2656 1382.5591 L 4370.0273 1382.5591 L 4370.0273 1380.7983 C 4367.9183 1379.1197 4366.1664 1377.0685 4364.7231 1374.6606 C 4362.5552 1370.9809 4361.4727 1366.7573 4361.4727 1361.9956 C 4361.4727 1357.019 4362.4487 1352.8013 4364.5034 1349.0083 C 4366.5581 1345.3286 4369.4839 1342.5156 4373.1636 1340.4609 C 4376.8433 1338.4023 4381.0669 1337.3203 4385.8286 1337.3203 z M 3952.0503 1337.3276 C 3958.2221 1337.3276 3963.5278 1338.7349 3967.7505 1341.6606 C 3971.9731 1344.477 3975.0039 1348.2617 3976.8398 1353.1289 C 3978.6836 1357.8906 3979.4336 1363.0942 3979.0078 1368.7192 L 3938.6367 1368.7192 C 3938.8476 1370.6684 3939.3862 1372.6167 3940.3667 1374.4526 C 3941.2299 1376.4018 3942.6362 1378.0273 3944.5854 1379.4375 C 3946.5346 1380.9492 3949.0268 1381.5981 3952.0503 1381.5981 C 3955.0854 1381.5981 3957.5738 1380.9493 3959.4097 1379.543 C 3961.3589 1378.1329 3962.769 1376.4028 3963.7456 1374.2388 L 3978.0278 1374.2388 C 3976.8403 1379.0005 3974.2422 1383.4409 3970.2422 1387.5542 C 3966.3398 1391.5581 3960.2768 1393.6128 3952.0503 1393.6128 C 3945.8823 1393.6128 3940.7963 1392.2075 3936.687 1389.4966 C 3932.6831 1386.7974 3929.6523 1383.2221 3927.7031 1378.894 C 3925.8593 1374.6714 3924.8862 1370.1289 3924.8862 1365.4688 C 3924.8862 1360.8204 3925.8593 1356.2739 3927.7031 1352.0552 C 3929.6523 1347.7192 3932.6831 1344.2573 3936.687 1341.4409 C 3940.7963 1338.7339 3945.8823 1337.3276 3952.0503 1337.3276 z M 4160.918 1337.3599 C 4165.8985 1337.3599 4170.1216 1338.226 4173.8013 1340.0698 C 4177.3755 1341.9057 4180.2934 1344.2885 4182.4614 1347.3237 C 4184.5161 1350.3471 4186.0351 1353.5971 4186.8984 1357.062 L 4171.3081 1357.062 C 4170.5542 1355.3276 4169.2534 1353.8159 4167.5229 1352.5151 C 4165.7924 1351.3276 4163.6251 1350.6724 4160.918 1350.6724 C 4158.1094 1350.6724 4155.7265 1351.3286 4153.8867 1352.8403 C 4152.0429 1354.3599 4150.6367 1356.1948 4149.7734 1358.3628 C 4148.9062 1360.6323 4148.4727 1363.0117 4148.4727 1365.5039 C 4148.4727 1367.9922 4148.9062 1370.3717 4149.7734 1372.5396 C 4150.6367 1374.8131 4152.0429 1376.6558 4153.8867 1378.1675 C 4155.6172 1379.5738 4157.9962 1380.3354 4160.918 1380.3354 C 4163.6251 1380.3354 4165.7925 1379.6802 4167.4175 1378.4927 C 4169.148 1377.1958 4170.3354 1375.7895 4171.2026 1374.0513 L 4186.8984 1374.0513 C 4185.4922 1379.5747 4182.6792 1384.2305 4178.4565 1387.9102 C 4174.1206 1391.6954 4168.2852 1393.645 4160.918 1393.645 C 4154.6407 1393.645 4149.4487 1392.2388 4145.4448 1389.5317 C 4141.3276 1386.7153 4138.4101 1383.2544 4136.5664 1378.9263 C 4134.6172 1374.7075 4133.7495 1370.1601 4133.7495 1365.5039 C 4133.7495 1360.7383 4134.6172 1356.3013 4136.5664 1351.9731 C 4138.4101 1347.7544 4141.3276 1344.1793 4145.4448 1341.4761 C 4149.4487 1338.7652 4154.6407 1337.3599 4160.918 1337.3599 z M 4479.7573 1337.3599 C 4484.7299 1337.3599 4488.9531 1338.226 4492.6406 1340.0698 C 4496.207 1341.9057 4499.1334 1344.2885 4501.2935 1347.3237 C 4503.356 1350.3471 4504.8678 1353.5971 4505.7349 1357.062 L 4490.1489 1357.062 C 4489.3911 1355.3276 4488.0855 1353.8159 4486.355 1352.5151 C 4484.6246 1351.3276 4482.4565 1350.6724 4479.7573 1350.6724 C 4476.9409 1350.6724 4474.5591 1351.3286 4472.7231 1352.8403 C 4470.8794 1354.3599 4469.4688 1356.1948 4468.6055 1358.3628 C 4467.7384 1360.6323 4467.3091 1363.0117 4467.3091 1365.5039 C 4467.3091 1367.9922 4467.7384 1370.3717 4468.6055 1372.5396 C 4469.4688 1374.8131 4470.8794 1376.6558 4472.7231 1378.1675 C 4474.4536 1379.5738 4476.8276 1380.3354 4479.7573 1380.3354 C 4482.4565 1380.3354 4484.6245 1379.6802 4486.2495 1378.4927 C 4487.9799 1377.1958 4489.2847 1375.7895 4490.0347 1374.0513 L 4505.7349 1374.0513 C 4504.3248 1379.5747 4501.5113 1384.2305 4497.2886 1387.9102 C 4492.9644 1391.6954 4487.1167 1393.645 4479.7573 1393.645 C 4473.4799 1393.645 4468.2808 1392.2388 4464.2769 1389.5317 C 4460.1636 1386.7153 4457.2422 1383.2544 4455.3984 1378.9263 C 4453.457 1374.7075 4452.5859 1370.1601 4452.5859 1365.5039 C 4452.5859 1360.7383 4453.457 1356.3013 4455.3984 1351.9731 C 4457.2422 1347.7544 4460.1636 1344.1793 4464.2769 1341.4761 C 4468.2808 1338.7652 4473.4799 1337.3599 4479.7573 1337.3599 z M 4533.312 1337.395 C 4538.2885 1337.395 4542.082 1338.3711 4544.8945 1340.3203 C 4547.8125 1342.2617 4549.9799 1344.754 4551.7104 1347.7852 L 4553.6602 1347.7852 C 4552.3594 1344.6485 4551.7104 1341.8315 4551.7104 1339.2378 L 4551.7104 1338.6958 L 4566.4292 1338.6958 L 4566.4292 1392.2739 L 4551.7104 1392.2739 L 4551.7104 1391.7305 C 4551.7104 1389.1329 4552.3594 1386.207 4553.6602 1383.0703 L 4551.7104 1383.0703 C 4551.4956 1383.6094 4551.1719 1384.0465 4550.8477 1384.5894 C 4549.7657 1386.2066 4548.5747 1387.726 4547.0552 1389.019 C 4545.5434 1390.4292 4543.5937 1391.5122 4541.2148 1392.3794 C 4538.9414 1393.2427 4536.1284 1393.5659 4532.8784 1393.5659 C 4527.6831 1393.5659 4523.2456 1392.2734 4519.5659 1389.457 C 4515.9917 1386.75 4513.3951 1383.1841 4511.6646 1378.9614 C 4509.9342 1374.6255 4509.0703 1370.1909 4509.0703 1365.4292 C 4509.0703 1360.7729 4509.9342 1356.3325 4511.6646 1352.0083 C 4513.3951 1347.6802 4515.9918 1344.1054 4519.6714 1341.3984 C 4523.2457 1338.6953 4527.8979 1337.395 4533.312 1337.395 z M 4188.7896 1338.6841 L 4206.4336 1338.6841 C 4207.7343 1338.6841 4208.8125 1339.1177 4209.6797 1339.9849 C 4210.5508 1340.8481 4210.9805 1341.9336 4210.9805 1343.1211 L 4210.9805 1392.2578 L 4196.2617 1392.2578 L 4196.2617 1354.4839 C 4196.2617 1353.7299 4196.0429 1353.1914 4195.5 1352.6484 C 4195.0703 1352.2109 4194.4184 1351.9922 4193.77 1351.9922 L 4188.7896 1351.9922 L 4188.7896 1338.6841 z M 4424.543 1338.6841 L 4442.187 1338.6841 C 4443.4878 1338.6841 4444.5669 1339.1177 4445.4302 1339.9849 C 4446.3013 1340.8481 4446.731 1341.9336 4446.731 1343.1211 L 4446.731 1392.2578 L 4432.0122 1392.2578 L 4432.0122 1354.4839 C 4432.0122 1353.7299 4431.7963 1353.1914 4431.2534 1352.6484 C 4430.8237 1352.2109 4430.1679 1351.9922 4429.5234 1351.9922 L 4424.543 1351.9922 L 4424.543 1338.6841 z M 3952.0503 1349.3438 C 3949.4565 1349.3438 3947.2885 1349.8863 3945.4526 1350.9683 C 3943.6088 1352.0543 3942.2031 1353.4614 3941.1211 1355.0786 C 3940.1484 1356.7036 3939.3862 1358.4342 3939.0659 1360.1646 L 3965.0391 1360.2773 C 3964.6094 1358.6523 3963.9643 1356.9219 3962.8784 1355.2969 C 3961.9018 1353.5664 3960.4957 1352.1558 3958.6597 1350.9683 C 3956.816 1349.8863 3954.6479 1349.3438 3952.0503 1349.3438 z M 4387.3403 1349.4419 C 4384.6411 1349.4419 4382.2539 1349.9839 4380.1992 1351.062 C 4378.1445 1352.0385 4376.519 1353.5513 4375.3315 1355.5005 C 4374.1362 1357.3442 4373.5942 1359.5034 4373.5942 1361.9956 C 4373.5942 1364.3784 4374.1362 1366.5385 4375.3315 1368.3823 C 4376.519 1370.2182 4378.1445 1371.6289 4380.1992 1372.7109 C 4382.2539 1373.6875 4384.6411 1374.23 4387.3403 1374.23 C 4390.0513 1374.23 4392.4302 1373.6875 4394.4888 1372.7109 C 4396.5434 1371.6289 4398.168 1370.2182 4399.3594 1368.3823 C 4400.5469 1366.5385 4401.0894 1364.3784 4401.0894 1361.9956 C 4401.0894 1359.5034 4400.5469 1357.3442 4399.3594 1355.5005 C 4398.168 1353.5513 4396.5434 1352.0385 4394.4888 1351.062 C 4392.4302 1349.9839 4390.0513 1349.4419 4387.3403 1349.4419 z M 4537.7461 1350.5977 C 4533.0976 1350.5977 4529.52 1352.1134 4527.2505 1355.0391 C 4524.977 1357.9571 4523.7891 1361.4214 4523.7891 1365.4292 C 4523.7891 1368.0268 4524.2187 1370.4067 4525.1953 1372.6802 C 4526.164 1374.9497 4527.6836 1376.7934 4529.7422 1378.1997 C 4531.9062 1379.6099 4534.5039 1380.3677 4537.7461 1380.3677 C 4540.8906 1380.3677 4543.4888 1379.6099 4545.6489 1378.1997 C 4547.7114 1376.7934 4549.2221 1374.8437 4550.1987 1372.5703 C 4551.1713 1370.4062 4551.7104 1368.0268 4551.7104 1365.4292 C 4551.7104 1361.4214 4550.5229 1357.9571 4548.1362 1355.0391 C 4545.8667 1352.1134 4542.4023 1350.5977 4537.7461 1350.5977 z M 4101.7383 1350.6211 C 4099.2461 1350.6211 4096.9732 1351.2739 4094.9224 1352.5708 C 4092.8599 1353.977 4091.2344 1355.7071 4090.043 1357.9805 C 4088.961 1360.2501 4088.313 1362.7427 4088.313 1365.4497 C 4088.313 1368.1528 4088.961 1370.6412 4090.043 1372.9146 C 4091.2344 1375.1881 4092.8599 1377.0307 4094.9224 1378.3315 C 4096.9732 1379.6284 4099.2461 1380.2813 4101.7383 1380.2813 C 4104.2265 1380.2812 4106.4995 1379.6284 4108.5542 1378.3315 C 4110.6088 1377.0307 4112.2348 1375.1881 4113.4263 1372.9146 C 4114.5083 1370.6412 4115.1563 1368.1528 4115.1563 1365.4497 C 4115.1563 1362.7427 4114.5083 1360.2501 4113.4263 1357.9805 C 4112.2348 1355.7071 4110.6088 1353.977 4108.5542 1352.5708 C 4106.4995 1351.2739 4104.2265 1350.6211 4101.7383 1350.6211 z M 4244.9414 1350.6211 C 4242.457 1350.6211 4240.1802 1351.2739 4238.1255 1352.5708 C 4236.0708 1353.977 4234.4453 1355.7071 4233.2578 1357.9805 C 4232.1718 1360.2501 4231.5234 1362.7427 4231.5234 1365.4497 C 4231.5234 1368.1528 4232.1718 1370.6412 4233.2578 1372.9146 C 4234.4453 1375.1881 4236.0708 1377.0307 4238.1255 1378.3315 C 4240.1802 1379.6284 4242.457 1380.2813 4244.9414 1380.2813 C 4247.4336 1380.2812 4249.7075 1379.6284 4251.7661 1378.3315 C 4253.8208 1377.0307 4255.4453 1375.1881 4256.6367 1372.9146 C 4257.7187 1370.6412 4258.3667 1368.1528 4258.3667 1365.4497 C 4258.3667 1362.7427 4257.7187 1360.2501 4256.6367 1357.9805 C 4255.4453 1355.7071 4253.8208 1353.977 4251.7661 1352.5708 C 4249.7075 1351.2739 4247.4336 1350.6211 4244.9414 1350.6211 z M 4328.4888 1350.6211 C 4325.9966 1350.6211 4323.7222 1351.2739 4321.6597 1352.5708 C 4319.605 1353.977 4317.981 1355.7071 4316.7935 1357.9805 C 4315.7076 1360.2501 4315.062 1362.7427 4315.062 1365.4497 C 4315.062 1368.1528 4315.7076 1370.6412 4316.7935 1372.9146 C 4317.981 1375.1881 4319.605 1377.0307 4321.6597 1378.3315 C 4323.7222 1379.6284 4325.9966 1380.2813 4328.4888 1380.2813 C 4330.9692 1380.2812 4333.2422 1379.6284 4335.3047 1378.3315 C 4337.3593 1377.0307 4338.9849 1375.1881 4340.1724 1372.9146 C 4341.2584 1370.6412 4341.9023 1368.1528 4341.9023 1365.4497 C 4341.9023 1362.7427 4341.2584 1360.2501 4340.1724 1357.9805 C 4338.9849 1355.7071 4337.3593 1353.977 4335.3047 1352.5708 C 4333.2422 1351.2739 4330.9692 1350.6211 4328.4888 1350.6211 z M 4388.5313 1401.1758 C 4385.2851 1401.1758 4382.3677 1401.5 4379.8755 1401.9375 C 4377.3872 1402.4765 4375.3316 1403.2384 4374.0308 1404.1055 C 4372.6207 1405.0743 4371.8628 1406.1597 4371.8628 1407.3472 C 4371.8628 1408.648 4372.6207 1409.7345 4374.0308 1410.5977 C 4375.3316 1411.4649 4377.3872 1412.2153 4379.8755 1412.7583 C 4382.3677 1413.3013 4385.2852 1413.52 4388.5313 1413.52 C 4391.6758 1413.52 4394.4888 1413.3013 4396.9731 1412.7583 C 4399.5747 1412.2153 4401.52 1411.4649 4402.9263 1410.5977 C 4404.3325 1409.7345 4405.0942 1408.648 4405.0942 1407.3472 C 4405.0942 1406.1597 4404.3325 1405.0743 4402.9263 1404.1055 C 4401.4145 1403.2384 4399.4653 1402.4765 4396.8677 1401.9375 C 4394.3755 1401.5 4391.5626 1401.1758 4388.5313 1401.1758 z M 3827.5356 1408.1411 L 3845.5078 1408.1411 L 3872.9956 1485.0981 L 3859.7974 1485.0981 L 3854.3789 1469.0786 L 3818.8755 1469.0786 L 3813.2461 1485.0981 L 3800.0464 1485.0981 L 3827.5356 1408.1411 z M 4111.4414 1408.1719 L 4126.1675 1408.1719 L 4126.1675 1415.9604 C 4126.1675 1418.1284 4125.7338 1420.297 4124.7612 1422.3516 C 4123.894 1424.4063 4122.3745 1426.0312 4120.4253 1427.4375 C 4118.476 1428.8437 4115.9878 1429.4927 4112.9604 1429.4927 L 4112.9604 1431.4409 L 4140.1245 1431.4409 L 4140.1245 1444.7534 L 4123.355 1444.7534 L 4123.355 1469.9766 C 4123.355 1471.3829 4123.6763 1472.5708 4124.4302 1473.3325 C 4125.0864 1474.1958 4126.0552 1474.6245 4127.4653 1474.6245 L 4140.1245 1474.6245 L 4140.1245 1485.1289 L 4126.3784 1485.1289 C 4122.0542 1485.1289 4118.5898 1484.3712 4115.8828 1482.8555 C 4113.2851 1481.4493 4111.4419 1479.3902 4110.3677 1476.7925 C 4109.1723 1474.3004 4108.6289 1471.2768 4108.6289 1467.9214 L 4108.6289 1444.7534 L 4098.9961 1444.7534 L 4098.9961 1431.4409 C 4103.1133 1431.4409 4106.145 1430.1446 4108.3052 1427.543 C 4110.3677 1424.9454 4111.4414 1421.914 4111.4414 1418.5664 L 4111.4414 1408.1719 z M 4296.8159 1408.1719 L 4318.4575 1408.1719 L 4318.4575 1421.4844 L 4303.519 1421.4844 C 4301.9018 1421.4844 4300.4956 1421.9145 4299.3003 1422.6724 C 4298.1088 1423.5395 4297.4604 1424.8398 4297.4604 1426.4648 C 4297.4604 1428.0859 4298.1088 1429.3867 4299.3003 1430.1445 C 4300.4956 1431.0117 4301.9018 1431.4409 4303.519 1431.4409 L 4318.4575 1431.4409 L 4318.4575 1444.7534 L 4301.9019 1444.7534 L 4301.9019 1485.1289 L 4287.1758 1485.1289 L 4287.1758 1444.7534 L 4277.4375 1444.7534 L 4277.4375 1431.4409 L 4287.1758 1431.4409 L 4287.1758 1429.4927 L 4286.6411 1429.1675 C 4285.3403 1428.1949 4284.2578 1427.1138 4283.3906 1425.813 C 4282.4179 1424.5161 4281.9844 1422.6719 4281.9844 1420.1836 C 4281.9844 1416.1797 4283.4957 1413.0434 4286.4214 1411.0942 C 4289.3433 1409.145 4292.8042 1408.1719 4296.8159 1408.1719 z M 3835.5513 1421.4536 L 3823.0972 1457.0581 L 3850.0503 1457.0581 L 3837.4922 1421.4536 L 3835.5513 1421.4536 z M 4248.9067 1430.0977 C 4253.9927 1430.0977 4258.7578 1431.4023 4263.082 1433.8828 C 4267.3047 1436.4883 4270.7739 1439.8437 4273.2583 1444.1719 C 4275.7466 1448.3906 4277.0508 1453.1557 4277.0508 1458.2417 C 4277.0508 1463.4331 4275.7466 1468.0943 4273.2583 1472.4185 C 4270.7739 1476.6412 4267.3047 1480.1011 4263.082 1482.5933 C 4258.7578 1485.1949 4253.9927 1486.3872 4248.9067 1486.3872 C 4243.8208 1486.3872 4239.0581 1485.1949 4234.8354 1482.5933 C 4230.5073 1480.1011 4227.0395 1476.6412 4224.5552 1472.4185 C 4222.0669 1468.0943 4220.7656 1463.4331 4220.7656 1458.2417 C 4220.7656 1453.1557 4222.0669 1448.3906 4224.5552 1444.1719 C 4227.0395 1439.8437 4230.5073 1436.4883 4234.8354 1433.8828 C 4239.0581 1431.4023 4243.8208 1430.0977 4248.9067 1430.0977 z M 4014.9185 1430.1211 C 4021.0865 1430.1211 4026.394 1431.5268 4030.6128 1434.4526 C 4034.8354 1437.2651 4037.8677 1441.0513 4039.7036 1445.9224 C 4041.5473 1450.6841 4042.3013 1455.8823 4041.8716 1461.5112 L 4001.4917 1461.5112 C 4001.7104 1463.4604 4002.254 1465.4101 4003.2305 1467.2461 C 4004.0977 1469.1953 4005.5044 1470.8204 4007.4536 1472.2266 C 4009.4028 1473.7423 4011.8873 1474.3872 4014.9185 1474.3872 C 4017.9498 1474.3872 4020.4419 1473.7422 4022.2778 1472.332 C 4024.227 1470.9258 4025.6329 1469.1958 4026.6094 1467.0278 L 4040.8945 1467.0278 C 4039.7031 1471.7934 4037.1099 1476.2305 4033.106 1480.3477 C 4029.2076 1484.3516 4023.1451 1486.4063 4014.9185 1486.4063 C 4008.7506 1486.4062 4003.6601 1484.9957 3999.5508 1482.2886 C 3995.5429 1479.5855 3992.5162 1476.0117 3990.6724 1471.6875 C 3988.7232 1467.4648 3987.7544 1462.9184 3987.7544 1458.2622 C 3987.7544 1453.6099 3988.7232 1449.0669 3990.6724 1444.8442 C 3992.5162 1440.5122 3995.5429 1437.0508 3999.5508 1434.2344 C 4003.6601 1431.5273 4008.7506 1430.1211 4014.9185 1430.1211 z M 4072.9878 1430.1519 C 4077.9682 1430.1519 4082.1914 1431.019 4085.8711 1432.8589 C 4089.4375 1434.6948 4092.3634 1437.0815 4094.5313 1440.1128 C 4096.5859 1443.1401 4098.0976 1446.3902 4098.9609 1449.8511 L 4083.3794 1449.8511 C 4082.6216 1448.1207 4081.3247 1446.6094 4079.5942 1445.3086 C 4077.8559 1444.1172 4075.6948 1443.4644 4072.9878 1443.4644 C 4070.1713 1443.4644 4067.7973 1444.1167 4065.9536 1445.6323 C 4064.1138 1447.1479 4062.7066 1448.9879 4061.8433 1451.1519 C 4060.9722 1453.4254 4060.5396 1455.8048 4060.5396 1458.293 C 4060.5396 1460.7852 4060.9722 1463.1635 4061.8433 1465.3315 C 4062.7066 1467.6049 4064.1138 1469.4453 4065.9536 1470.9609 C 4067.6841 1472.3672 4070.0659 1473.1245 4072.9878 1473.1245 C 4075.6948 1473.1245 4077.855 1472.4722 4079.48 1471.2847 C 4081.2105 1469.9879 4082.5122 1468.5816 4083.2739 1466.8433 L 4098.9609 1466.8433 C 4097.5547 1472.3668 4094.7417 1477.0239 4090.519 1480.7036 C 4086.1909 1484.4888 4080.3471 1486.437 4072.9878 1486.437 C 4066.7104 1486.437 4061.5112 1485.0317 4057.5073 1482.3208 C 4053.3979 1479.5083 4050.4721 1476.0465 4048.6362 1471.7183 C 4046.687 1467.4957 4045.8237 1462.9532 4045.8237 1458.293 C 4045.8237 1453.5313 4046.687 1449.0932 4048.6362 1444.7651 C 4050.4721 1440.5424 4053.3979 1436.9687 4057.5073 1434.2695 C 4061.5112 1431.5586 4066.7104 1430.1519 4072.9878 1430.1519 z M 3896.5942 1430.1636 C 3901.6802 1430.1636 3906.0113 1430.9254 3909.4761 1432.5425 C 3913.0425 1434.1675 3915.644 1436.2226 3917.3745 1438.8281 C 3919.2143 1441.4219 3920.0786 1444.3442 3920.0786 1447.3755 L 3920.0786 1448.2427 L 3906.6606 1448.2427 L 3906.6606 1447.3755 C 3906.6606 1445.7505 3905.7973 1444.4566 3903.9536 1443.4761 C 3902.1177 1442.6129 3899.6245 1442.0698 3896.7026 1442.0698 C 3894.101 1442.0698 3891.9415 1442.6129 3890.0977 1443.4761 C 3888.3673 1444.4566 3887.3906 1445.6441 3887.3906 1447.1558 C 3887.3906 1448.2418 3887.8281 1449.0006 3888.6914 1449.5435 C 3889.5586 1450.0826 3890.7461 1450.5113 3892.2656 1450.73 C 3893.8906 1451.0543 3895.7261 1451.2729 3897.7808 1451.4917 C 3902.3277 1451.9214 3906.2226 1452.5669 3909.3633 1453.4341 C 3912.5078 1454.1919 3915.2105 1455.7104 3917.48 1457.9839 C 3919.8668 1460.2573 3921.0542 1463.5005 3921.0542 1467.8364 C 3921.0542 1471.0786 3920.1919 1474.1094 3918.4614 1476.9258 C 3916.6177 1479.7383 3913.9146 1482.0112 3910.2349 1483.7417 C 3906.5474 1485.5776 3902.0034 1486.4531 3896.7026 1486.4531 C 3891.1831 1486.4531 3886.6362 1485.5776 3883.062 1483.7417 C 3879.3823 1482.0112 3876.5698 1479.7383 3874.8354 1476.9258 C 3872.9956 1474.1094 3872.0229 1471.0786 3872.0229 1467.8364 L 3885.4497 1467.8364 C 3885.4497 1469.9966 3886.4184 1471.6206 3888.3677 1472.7026 C 3890.3169 1473.894 3893.019 1474.4341 3896.7026 1474.4341 C 3898.4331 1474.4341 3900.0552 1474.2149 3901.5747 1473.7852 C 3903.0864 1473.3516 3904.2778 1472.5904 3905.2544 1471.7271 C 3906.2231 1470.86 3906.6606 1469.6714 3906.6606 1468.2612 C 3906.6606 1466.8549 3906.1206 1465.7734 3905.1401 1465.0195 C 3904.0659 1464.1484 3902.7617 1463.6129 3901.1367 1463.2808 C 3899.5117 1463.0699 3897.3516 1462.7423 3894.5391 1462.418 C 3890.2071 1461.9884 3886.5235 1461.4453 3883.6055 1460.8008 C 3880.6837 1460.039 3878.0825 1458.6328 3876.0278 1456.4648 C 3873.9731 1454.4101 3872.8901 1451.3794 3872.8901 1447.3755 C 3872.8901 1444.3442 3873.754 1441.4219 3875.4844 1438.8281 C 3877.2149 1436.2226 3879.8208 1434.1675 3883.3872 1432.5425 C 3886.9614 1430.9254 3891.2895 1430.1636 3896.5942 1430.1636 z M 4166.9604 1430.1636 C 4172.0463 1430.1636 4176.3755 1430.9254 4179.8364 1432.5425 C 4183.4106 1434.1675 4186.0073 1436.2226 4187.7378 1438.8281 C 4189.5815 1441.4219 4190.4492 1444.3442 4190.4492 1447.3755 L 4190.4492 1448.2427 L 4177.0239 1448.2427 L 4177.0239 1447.3755 C 4177.0239 1445.7505 4176.1557 1444.4566 4174.3198 1443.4761 C 4172.476 1442.6129 4169.9878 1442.0698 4167.0659 1442.0698 C 4164.4721 1442.0698 4162.3043 1442.6129 4160.4683 1443.4761 C 4158.7379 1444.4566 4157.7583 1445.6441 4157.7583 1447.1558 C 4157.7583 1448.2418 4158.1948 1449.0006 4159.062 1449.5435 C 4159.9253 1450.0826 4161.1172 1450.5113 4162.6289 1450.73 C 4164.2539 1451.0543 4166.0981 1451.2729 4168.1528 1451.4917 C 4172.6958 1451.9214 4176.5943 1452.5669 4179.731 1453.4341 C 4182.8717 1454.1919 4185.5787 1455.7104 4187.8521 1457.9839 C 4190.231 1460.2573 4191.4175 1463.5005 4191.4175 1467.8364 C 4191.4175 1471.0786 4190.5508 1474.1094 4188.8203 1476.9258 C 4186.9843 1479.7383 4184.2778 1482.0112 4180.5981 1483.7417 C 4176.9184 1485.5776 4172.3706 1486.4531 4167.0659 1486.4531 C 4161.5503 1486.4531 4157.0005 1485.5776 4153.4341 1483.7417 C 4149.7544 1482.0112 4146.938 1479.7383 4145.2075 1476.9258 C 4143.3638 1474.1094 4142.395 1471.0786 4142.395 1467.8364 L 4155.8086 1467.8364 C 4155.8086 1469.9966 4156.789 1471.6206 4158.7383 1472.7026 C 4160.6797 1473.894 4163.3862 1474.4341 4167.0659 1474.4341 C 4168.7963 1474.4341 4170.4223 1474.2149 4171.938 1473.7852 C 4173.4575 1473.3516 4174.645 1472.5904 4175.6177 1471.7271 C 4176.5942 1470.86 4177.0239 1469.6714 4177.0239 1468.2612 C 4177.0239 1466.8549 4176.4888 1465.7734 4175.5122 1465.0195 C 4174.4263 1464.1484 4173.1323 1463.6129 4171.5073 1463.2808 C 4169.8823 1463.0699 4167.7143 1462.7423 4164.8979 1462.418 C 4160.5737 1461.9884 4156.895 1461.4453 4153.9731 1460.8008 C 4151.0473 1460.039 4148.4487 1458.6328 4146.394 1456.4648 C 4144.3354 1454.4101 4143.2578 1451.3794 4143.2578 1447.3755 C 4143.2578 1444.3442 4144.1246 1441.4219 4145.855 1438.8281 C 4147.5855 1436.2226 4150.1831 1434.1675 4153.7534 1432.5425 C 4157.3315 1430.9254 4161.6557 1430.1636 4166.9604 1430.1636 z M 3959.6646 1430.1841 C 3964.8639 1430.1841 3969.4057 1431.4878 3973.0854 1434.3003 C 3976.6557 1437.0034 3979.4687 1440.4731 3981.1992 1444.7974 C 3983.0429 1449.1255 3983.9106 1453.5665 3983.9106 1458.2227 C 3983.9106 1462.9845 3983.0429 1467.4174 3981.1992 1471.7534 C 3979.4687 1475.9721 3976.6568 1479.5395 3972.9771 1482.2505 C 3969.2974 1485.063 3964.6441 1486.3594 3959.2339 1486.3594 C 3954.2496 1486.3594 3950.4604 1485.3862 3947.644 1483.437 C 3944.726 1481.3823 3942.5586 1478.8945 3940.8281 1475.8594 L 3938.8784 1475.8594 C 3940.1792 1479.8633 3940.8281 1484.1992 3940.8281 1488.9609 L 3940.8281 1515.6987 L 3926.1094 1515.6987 L 3926.1094 1431.4878 L 3940.8281 1431.4878 L 3940.8281 1432.0269 C 3940.8281 1433.3238 3940.6088 1434.7304 3940.1792 1436.25 C 3939.8588 1437.8672 3939.4213 1439.2778 3938.8784 1440.5786 L 3940.8281 1440.5786 C 3941.0468 1440.2544 3941.2652 1439.8159 3941.48 1439.3862 C 3942.5582 1437.6557 3943.8593 1436.1368 3945.375 1434.8438 C 3946.8945 1433.4376 3948.8394 1432.351 3951.2183 1431.4878 C 3953.605 1430.6206 3956.4185 1430.1841 3959.6646 1430.1841 z M 4014.9185 1442.1372 C 4012.3209 1442.1372 4010.1562 1442.6797 4008.3164 1443.7617 C 4006.4765 1444.8437 4005.0709 1446.2534 4003.9849 1447.8706 C 4003.0162 1449.4956 4002.3672 1451.226 4001.9297 1452.9565 L 4027.9058 1453.0708 C 4027.4761 1451.4458 4026.8208 1449.7153 4025.7466 1448.0903 C 4024.77 1446.3599 4023.3593 1444.9492 4021.5234 1443.7617 C 4019.6797 1442.6797 4017.5162 1442.1372 4014.9185 1442.1372 z M 3955.0122 1443.3911 C 3952.4106 1443.3911 3949.9263 1444.0385 3947.8638 1445.2339 C 3945.7036 1446.4214 3943.9654 1448.1518 3942.6724 1450.4253 C 3941.481 1452.6987 3940.8281 1455.297 3940.8281 1458.2227 C 3940.8281 1462.7657 3942.2348 1466.3365 3944.9458 1469.0435 C 3947.645 1471.7545 3951.0044 1473.1597 3955.0122 1473.1597 C 3957.6098 1473.1597 3960.0971 1472.5044 3962.2573 1471.3169 C 3964.4253 1470.1255 3966.0509 1468.395 3967.3477 1466.1255 C 3968.543 1463.852 3969.1875 1461.2501 3969.1875 1458.2227 C 3969.1875 1453.7852 3967.8862 1450.2065 3965.187 1447.5073 C 3962.476 1444.7964 3959.1216 1443.3911 3955.0122 1443.3911 z M 4248.9067 1443.4102 C 4246.4145 1443.4102 4244.1441 1444.0669 4242.0894 1445.3599 C 4240.0347 1446.7661 4238.4101 1448.4961 4237.2188 1450.7695 C 4236.1368 1453.0429 4235.48 1455.5346 4235.48 1458.2417 C 4235.48 1460.9448 4236.1368 1463.4331 4237.2188 1465.7065 C 4238.4101 1467.9799 4240.0347 1469.8242 4242.0894 1471.125 C 4244.1441 1472.4179 4246.4145 1473.0747 4248.9067 1473.0747 C 4251.395 1473.0747 4253.668 1472.4179 4255.7227 1471.125 C 4257.7852 1469.8242 4259.4024 1467.9799 4260.5977 1465.7065 C 4261.6759 1463.4331 4262.332 1460.9448 4262.332 1458.2417 C 4262.332 1455.5346 4261.6759 1453.0429 4260.5977 1450.7695 C 4259.4024 1448.4961 4257.7852 1446.7661 4255.7227 1445.3599 C 4253.668 1444.0669 4251.395 1443.4102 4248.9067 1443.4102 z M 4118.7817 1497.5435 C 4120.7309 1497.5435 4122.3559 1498.191 4123.7622 1499.5972 C 4125.1723 1501.0035 4125.9302 1502.7339 4125.9302 1504.6831 C 4125.9302 1506.6323 4125.1723 1508.2574 4123.7622 1509.6636 C 4122.3559 1511.0738 4120.7309 1511.8315 4118.7817 1511.8315 C 4116.727 1511.8315 4114.9957 1511.1797 4113.4761 1509.7734 C 4112.0699 1508.3633 4111.3169 1506.6323 4111.3169 1504.6831 C 4111.3169 1502.7339 4112.0699 1501.0035 4113.4761 1499.5972 C 4114.9957 1498.191 4116.727 1497.5435 4118.7817 1497.5435 z M 4085.0977 1500.8979 L 4099.8208 1500.8979 L 4099.8208 1577.855 L 4085.0977 1577.855 L 4085.0977 1577.313 C 4085.0977 1575.9067 4085.3159 1574.5005 4085.7495 1572.9888 C 4086.1792 1571.4692 4086.6173 1570.0625 4087.1602 1568.7656 L 4085.0977 1568.7656 C 4084.8868 1569.0898 4084.6674 1569.414 4084.4487 1569.8438 C 4082.8237 1572.5508 4080.5508 1574.8237 4077.7383 1576.5542 C 4074.9218 1578.2846 4071.1372 1579.1528 4066.3755 1579.1528 C 4061.0708 1579.1528 4056.6372 1577.855 4053.063 1575.0425 C 4049.4888 1572.3316 4046.7846 1568.7652 4045.0503 1564.5425 C 4043.3159 1560.2105 4042.4531 1555.7778 4042.4531 1551.0161 C 4042.4531 1546.3559 4043.3159 1541.8121 4045.0503 1537.5894 C 4046.7846 1533.2652 4049.4889 1529.6881 4053.1685 1526.981 C 4056.8482 1524.2779 4061.395 1522.9761 4066.8091 1522.9761 C 4071.6802 1522.9761 4075.5781 1523.9536 4078.2773 1525.9028 C 4081.0937 1527.9575 4083.3673 1530.4488 4085.0977 1533.4761 L 4087.1602 1533.4761 C 4085.7501 1529.4722 4085.0977 1525.0317 4085.0977 1520.3833 L 4085.0977 1500.8979 z M 3807.2974 1500.9727 L 3838.0356 1500.9727 C 3842.5864 1500.9727 3846.6954 1501.6246 3850.5938 1503.0308 C 3854.3789 1504.5465 3857.5162 1506.7109 3859.7974 1509.5273 C 3862.0709 1512.4453 3863.2573 1515.9096 3863.2573 1520.0229 C 3863.2573 1523.5971 3862.3906 1526.519 3860.8711 1528.894 C 3859.2539 1531.1674 3857.0855 1533.0112 3854.5972 1534.2026 C 3851.9996 1535.3901 3849.1875 1536.1484 3846.1523 1536.5859 L 3846.1523 1538.5356 C 3849.7265 1538.7466 3853.1875 1539.6138 3856.4414 1541.02 C 3859.7968 1542.4263 3862.6088 1544.5942 3864.769 1547.5122 C 3866.937 1550.3286 3868.125 1553.9024 3868.125 1558.2305 C 3868.125 1562.8868 3866.7183 1566.672 3863.9019 1569.5977 C 3861.2027 1572.5196 3857.6294 1574.6832 3853.0825 1575.98 C 3848.645 1577.2808 3843.7778 1577.8242 3838.3638 1577.8242 L 3807.2974 1577.8242 L 3807.2974 1500.9727 z M 3822.019 1514.2896 L 3822.019 1531.062 L 3838.8984 1531.062 C 3842.3672 1531.062 3844.9653 1530.3052 3846.8013 1529.0083 C 3848.645 1527.602 3849.6138 1525.4342 3849.6138 1522.7271 C 3849.6138 1520.024 3848.645 1517.8549 3846.8013 1516.4487 C 3844.9653 1514.937 3842.3672 1514.2896 3838.8984 1514.2896 L 3822.019 1514.2896 z M 3940.7886 1522.8706 C 3945.7652 1522.8706 3949.5548 1523.9527 3952.4766 1525.9058 C 3955.2891 1527.8472 3957.4565 1530.3364 3959.187 1533.3677 L 3961.1367 1533.3677 C 3959.8359 1530.2309 3959.187 1527.3125 3959.187 1524.8203 L 3959.187 1524.2769 L 3973.9058 1524.2769 L 3973.9058 1577.855 L 3959.187 1577.855 L 3959.187 1577.313 C 3959.187 1574.7192 3959.8359 1571.7934 3961.1367 1568.6528 L 3959.187 1568.6528 C 3958.9682 1569.1958 3958.644 1569.6289 3958.3198 1570.1719 C 3957.2378 1571.7929 3956.0513 1573.3131 3954.5317 1574.606 C 3953.0161 1576.0123 3951.0704 1577.0971 3948.7969 1577.9604 C 3946.418 1578.7221 3943.6021 1579.1528 3940.3521 1579.1528 C 3935.1607 1579.1528 3930.7182 1577.855 3927.1479 1575.0425 C 3923.4682 1572.3316 3920.8716 1568.7652 3919.1411 1564.5425 C 3917.4106 1560.2105 3916.5425 1555.7778 3916.5425 1551.0161 C 3916.5425 1546.3559 3917.4106 1541.8121 3919.1411 1537.5894 C 3920.8716 1533.2613 3923.4682 1529.6881 3927.1479 1526.981 C 3930.8276 1524.2779 3935.3785 1522.8706 3940.7886 1522.8706 z M 4015.1484 1522.8721 C 4016.7314 1522.9126 4018.273 1523.1284 4019.7847 1523.5034 C 4023.5777 1524.3784 4026.7182 1526.2143 4029.312 1528.812 C 4031.9096 1531.4057 4033.7539 1534.3325 4034.9414 1537.6919 C 4036.1328 1540.9341 4036.7856 1544.1836 4036.7856 1547.2148 L 4036.7856 1577.8433 L 4022.0581 1577.8433 L 4022.0581 1547.9692 C 4022.0581 1544.4028 4021.0893 1541.3706 4019.2456 1538.8784 C 4017.4096 1536.3862 4014.4883 1534.9809 4010.5898 1534.7622 C 4007.664 1534.6567 4005.1792 1535.0938 4003.1206 1536.2813 C 4001.1713 1537.3673 3999.7623 1538.9844 3998.7935 1540.9336 C 3997.9264 1542.8828 3997.2768 1545.1557 3997.062 1547.644 C 3996.9487 1552.0854 3996.8438 1556.6294 3996.8438 1561.1763 L 3996.8438 1577.8433 L 3982.125 1577.8433 L 3982.125 1524.2651 L 3996.8438 1524.2651 L 3996.8438 1525.7856 C 3996.8438 1527.2974 3996.6251 1529.1367 3995.9766 1531.1953 C 3995.4376 1533.25 3994.6758 1535.1997 3993.8086 1537.0356 L 3995.7612 1537.0356 C 3996.8432 1533.0317 3998.7929 1529.8945 4001.3906 1527.6211 C 4003.9843 1525.3476 4007.0161 1523.941 4010.2661 1523.2925 C 4011.9419 1522.9663 4013.5654 1522.8315 4015.1484 1522.8721 z M 4167.8057 1522.8721 C 4169.3887 1522.9126 4170.9311 1523.1284 4172.4448 1523.5034 C 4176.2378 1524.3784 4179.3746 1526.2143 4181.9722 1528.812 C 4184.566 1531.4057 4186.4102 1534.3325 4187.6016 1537.6919 C 4188.7891 1540.9341 4189.4414 1544.1836 4189.4414 1547.2148 L 4189.4414 1577.8433 L 4174.7183 1577.8433 L 4174.7183 1547.9692 C 4174.7183 1544.4028 4173.7466 1541.3706 4171.9028 1538.8784 C 4170.0669 1536.3862 4167.1445 1534.9809 4163.25 1534.7622 C 4160.3203 1534.6567 4157.8403 1535.0938 4155.7778 1536.2813 C 4153.8286 1537.3673 4152.4218 1538.9844 4151.4492 1540.9336 C 4150.5859 1542.8828 4149.938 1545.1557 4149.7192 1547.644 C 4149.6059 1552.0854 4149.4995 1556.6294 4149.4995 1561.1763 L 4149.4995 1577.8433 L 4134.7808 1577.8433 L 4134.7808 1524.2651 L 4149.4995 1524.2651 L 4149.4995 1525.7856 C 4149.4995 1527.2974 4149.2851 1529.1367 4148.6367 1531.1953 C 4148.0937 1533.25 4147.336 1535.1997 4146.4688 1537.0356 L 4148.4185 1537.0356 C 4149.5006 1533.0317 4151.4488 1529.8945 4154.0464 1527.6211 C 4156.6441 1525.3476 4159.6763 1523.941 4162.9263 1523.2925 C 4164.6001 1522.9663 4166.2227 1522.8315 4167.8057 1522.8721 z M 4219.4224 1522.9058 C 4222.9967 1522.9058 4226.1333 1523.6601 4229.0552 1525.0664 C 4231.8677 1526.4726 4234.1406 1528.3169 4235.8711 1530.6958 C 4237.4961 1532.9653 4238.5821 1535.457 4238.9063 1537.9453 L 4240.856 1537.9453 C 4239.6646 1534.5898 4239.0161 1531.5586 4239.0161 1528.7461 C 4239.0161 1527.4492 4239.4453 1526.4727 4240.3125 1525.6055 C 4241.1758 1524.6368 4242.2622 1524.1992 4243.563 1524.1992 L 4255.5703 1524.1992 L 4255.5703 1537.519 L 4249.1909 1537.519 C 4248.5346 1537.519 4247.9961 1537.7299 4247.5664 1538.269 C 4247.0234 1538.7065 4246.8047 1539.2505 4246.8047 1540.0005 L 4246.8047 1547.5781 C 4246.8047 1552.3437 4245.7231 1556.6764 4243.563 1560.356 C 4241.395 1564.0357 4238.3633 1566.957 4234.4648 1568.9063 C 4230.5742 1570.961 4226.0229 1571.937 4220.937 1571.937 C 4220.9004 1571.937 4220.8652 1571.9342 4220.8286 1571.9341 L 4220.8286 1571.937 L 4209.145 1571.937 C 4208.1645 1571.937 4207.4057 1572.148 4206.8628 1572.4761 C 4206.3276 1572.8004 4206 1573.3437 4206 1573.9922 C 4206 1574.75 4206.3276 1575.2924 4206.8628 1575.6167 C 4207.4057 1575.9409 4208.1645 1576.1558 4209.145 1576.1558 L 4222.1294 1576.1558 C 4227.7622 1576.1558 4232.9526 1576.8047 4237.4956 1578.3164 C 4242.0424 1579.7265 4245.6172 1581.7846 4248.2109 1584.3823 C 4250.8086 1586.8745 4252.1089 1589.7934 4252.1089 1592.9341 C 4252.1089 1596.0708 4250.8086 1598.8824 4248.2109 1601.48 C 4245.6172 1604.0816 4242.0424 1606.0313 4237.4956 1607.543 C 4232.9526 1609.0587 4227.8628 1609.7109 4222.2378 1609.7109 C 4216.3901 1609.7109 4211.1988 1609.1714 4206.6519 1607.8667 C 4202.105 1606.6792 4198.5317 1604.8359 4195.938 1602.5625 C 4193.3325 1600.289 4192.0386 1597.8013 4192.0386 1594.9849 C 4192.0386 1592.5005 4192.7964 1590.4414 4194.4175 1588.7109 C 4195.9371 1586.9804 4197.7734 1585.6763 4199.9414 1584.813 C 4202.1054 1584.0591 4204.2656 1583.52 4206.4336 1583.3013 L 4206.6519 1583.3013 L 4206.6519 1581.2461 L 4202.8594 1581.2461 C 4200.3712 1581.2461 4198.4292 1580.7036 4197.1245 1579.5161 C 4195.7182 1578.2114 4195.0708 1576.5854 4195.0708 1574.4214 C 4195.0708 1572.476 4195.7182 1570.9604 4197.1245 1569.769 C 4198.4292 1568.687 4200.3712 1568.1445 4202.8594 1568.1445 L 4203.6211 1568.1445 L 4203.6211 1566.3838 C 4201.5121 1564.704 4199.7601 1562.6495 4198.3169 1560.2417 C 4196.1489 1556.562 4195.0708 1552.3437 4195.0708 1547.5781 C 4195.0708 1542.6054 4196.0425 1538.3824 4198.0972 1534.5894 C 4200.1597 1530.9097 4203.0776 1528.0982 4206.7573 1526.0435 C 4210.437 1523.9889 4214.6607 1522.9058 4219.4224 1522.9058 z M 3870.75 1524.2344 L 3886.5513 1524.2344 C 3888.1684 1524.2344 3889.4726 1524.6684 3890.4492 1525.4224 C 3891.5234 1526.2934 3892.0664 1527.3716 3892.0664 1528.9966 C 3892.0664 1532.0278 3891.4174 1536.8989 3890.0112 1543.7153 L 3892.0664 1543.7153 C 3893.1523 1539.8247 3894.7773 1536.4688 3896.9414 1533.5391 C 3899.1015 1530.6212 3901.813 1528.3481 3904.9497 1526.7231 C 3908.0864 1525.0981 3911.7651 1524.2344 3915.769 1524.2344 L 3915.769 1537.5425 C 3910.6831 1537.5425 3906.5738 1538.6294 3903.2183 1540.9028 C 3899.9683 1543.0669 3897.5893 1545.9879 3896.0698 1549.3433 C 3894.5581 1552.8121 3893.7964 1556.3789 3893.7964 1560.0586 L 3893.7964 1577.9224 L 3879.0776 1577.9224 L 3879.0776 1539.4922 C 3879.0776 1538.8476 3878.8629 1538.4141 3878.5386 1537.9805 C 3878.2144 1537.6563 3877.7856 1537.5425 3877.1294 1537.5425 L 3870.75 1537.5425 L 3870.75 1524.2344 z M 4104.3867 1524.2769 L 4122.0308 1524.2769 C 4123.3277 1524.2769 4124.4097 1524.7075 4125.2769 1525.5747 C 4126.1402 1526.438 4126.5776 1527.523 4126.5776 1528.7183 L 4126.5776 1577.855 L 4111.8589 1577.855 L 4111.8589 1540.0825 C 4111.8589 1539.3208 4111.6402 1538.7812 4111.0972 1538.2383 C 4110.6636 1537.8086 4110.0156 1537.5894 4109.3672 1537.5894 L 4104.3867 1537.5894 L 4104.3867 1524.2769 z M 4220.937 1535.0273 C 4218.2338 1535.0273 4215.8477 1535.5703 4213.793 1536.6445 C 4211.7384 1537.625 4210.1128 1539.1367 4208.9253 1541.0859 C 4207.7338 1542.9297 4207.1953 1545.0898 4207.1953 1547.5781 C 4207.1953 1549.9648 4207.7338 1552.1255 4208.9253 1553.8638 C 4210.1128 1555.6997 4211.7384 1557.2115 4213.793 1558.2935 C 4215.8477 1559.274 4218.2338 1559.8125 4220.937 1559.8125 C 4223.644 1559.8125 4226.0239 1559.274 4228.0825 1558.2935 C 4230.1372 1557.2115 4231.7617 1555.6997 4232.9531 1553.8638 C 4234.1406 1552.1255 4234.6831 1549.9648 4234.6831 1547.5781 C 4234.6831 1545.0898 4234.1406 1542.9297 4232.9531 1541.0859 C 4231.7617 1539.1367 4230.1372 1537.625 4228.0825 1536.6445 C 4226.0239 1535.5703 4223.644 1535.0273 4220.937 1535.0273 z M 3945.2227 1536.1831 C 3940.5704 1536.1831 3936.9962 1537.6958 3934.7227 1540.6216 C 3932.4532 1543.5434 3931.2612 1547.0044 3931.2612 1551.0161 C 3931.2612 1553.6099 3931.691 1555.9878 3932.6675 1558.2612 C 3933.6402 1560.5346 3935.1597 1562.379 3937.2144 1563.7852 C 3939.3824 1565.1915 3941.9766 1565.9487 3945.2227 1565.9487 C 3948.3673 1565.9487 3950.9609 1565.1915 3953.1211 1563.7852 C 3955.1836 1562.379 3956.6948 1560.4293 3957.6753 1558.1558 C 3958.644 1555.8824 3959.187 1553.6099 3959.187 1551.0161 C 3959.187 1547.0044 3957.9956 1543.5434 3955.6128 1540.6216 C 3953.3393 1537.6958 3949.879 1536.1831 3945.2227 1536.1831 z M 4071.1362 1536.1831 C 4067.2417 1536.1831 4063.8833 1537.5898 4061.1841 1540.3008 C 4058.5786 1543 4057.1719 1546.5747 4057.1719 1551.0161 C 4057.1719 1555.5591 4058.5786 1559.1245 4061.1841 1561.8354 C 4063.7778 1564.5424 4067.1323 1565.9487 4071.1362 1565.9487 C 4075.2534 1565.9487 4078.4961 1564.5424 4081.207 1561.8354 C 4083.8008 1559.1245 4085.0977 1555.5591 4085.0977 1551.0161 C 4085.0977 1546.5747 4083.8008 1543 4081.207 1540.3008 C 4078.4961 1537.5898 4075.2534 1536.1831 4071.1362 1536.1831 z M 3822.019 1544.3745 L 3822.019 1564.6172 L 3839.3364 1564.6172 C 3842.2544 1564.6172 3844.7466 1564.1871 3846.8013 1563.5347 C 3848.8638 1562.8863 3850.4883 1561.6958 3851.5664 1560.1802 C 3852.6484 1558.77 3853.188 1556.8203 3853.188 1554.4453 C 3853.188 1552.1719 3852.6484 1550.3276 3851.5664 1548.8159 C 3850.375 1547.3003 3848.7505 1546.2187 3846.8013 1545.457 C 3844.7466 1544.6992 3842.2544 1544.3745 3839.3364 1544.3745 L 3822.019 1544.3745 z M 4222.1294 1586.7612 C 4218.8833 1586.7612 4215.9614 1587.0864 4213.4692 1587.52 C 4210.9809 1588.063 4208.9253 1588.8208 4207.6245 1589.688 C 4206.2143 1590.5552 4205.4653 1591.6372 4205.4653 1592.9341 C 4205.4653 1594.1216 4206.2143 1595.3169 4207.6245 1596.1802 C 4208.9253 1597.0474 4210.9809 1597.8008 4213.4692 1598.3438 C 4215.9614 1598.8828 4218.8833 1599.1011 4222.1294 1599.1011 C 4225.27 1599.1011 4228.082 1598.8828 4230.5742 1598.3438 C 4233.1718 1597.8009 4235.1211 1597.0474 4236.5273 1596.1802 C 4237.9336 1595.3169 4238.688 1594.1216 4238.688 1592.9341 C 4238.688 1591.6372 4237.9336 1590.5552 4236.5273 1589.688 C 4235.0078 1588.8208 4233.0591 1588.063 4230.4614 1587.52 C 4227.9731 1587.0864 4225.1567 1586.7612 4222.1294 1586.7612 z " fill="#FFFFFF" fill-rule="nonzero"/>
    <path id="path2" d="m 612.87892,1125.2461 c 0,123.8945 -98.4844,208.2422 -286.47659,208.2422 -133.1562,0 -244.917905,-42.2188 -326.402305,-117.8711 l 79.1875,-108.4219 C 140.71093,1167.375 225.82033,1201 329.36333,1201 c 88.8359,0 133.2578,-19.0117 133.2578,-58.5586 0,-38.6836 -41.461,-51.582 -148.0586,-61.8945 -153.8906,-15.4805 -293.836005,-55.1211 -293.836005,-189.33207 0,-129.0469 119.984405,-199.6406 284.277395,-199.6406 111,0 213.1133,31.0469 284.18361,89.5078 l -76.2305,109.2774 c -57.6953,-47.2852 -127.332,-66.1993 -207.9531,-67.0625 -60.75,0 -134.0117,11.1796 -134.0117,54.164 0,40.4102 59.9843,45.5625 152.4492,54.1641 169.5547,16.4297 289.4375,55.1133 289.4375,193.62107" fill-rule="nonzero" fill-opacity="1" fill="#FFFFFF"/>
    <path id="path3" d="m 936.98832,1193.4453 c 17,-9.6524 29.7031,-24.0742 38.207,-43.3711 8.5039,-19.1992 12.7031,-43.7461 12.7031,-73.457 0,-29.7071 -4.1992,-54.543 -12.7031,-74.3203 -8.5039,-19.85937 -21.3984,-34.67187 -38.7813,-44.60548 -17.4843,-9.93359 -38.7812,-14.8047 -64.0039,-14.8047 -36.0117,0 -62.7539,10.793 -80.1406,32.5742 -17.3867,21.7774 -26.0781,55.68748 -26.0781,102.01948 0,45.086 8.5976,78.1368 25.793,99.0547 17.1914,20.9219 44.1289,31.3321 81.0039,31.3321 25.6953,0 46.9921,-4.7735 64,-14.4219 M 608.38672,1075.375 c 0,-160.09377 103.6406,-257.24217 268.707,-257.24217 164.30078,0 267.84768,97.1484 267.84768,257.24217 0,159.1445 -103.5469,258.1054 -267.84768,258.1054 -165.0664,0 -268.707,-98.9609 -268.707,-258.1054" fill-rule="nonzero" fill-opacity="1" fill="#FFFFFF"/>
    <path id="path4" d="m 1478.8242,1193.4453 c 17,-9.6524 29.7031,-24.0742 38.2031,-43.3711 8.5078,-19.1992 12.7031,-43.7461 12.7031,-73.457 0,-29.7071 -4.1953,-54.543 -12.7031,-74.3203 -8.5,-19.85937 -21.3984,-34.67187 -38.7812,-44.60548 -17.4805,-9.93359 -38.7774,-14.8047 -64,-14.8047 -36.0117,0 -62.7578,10.793 -80.1407,32.5742 -17.3867,21.7774 -26.082,55.68748 -26.082,102.01948 0,45.086 8.6016,78.1368 25.793,99.0547 17.1953,20.9219 44.1328,31.3321 81,31.3321 25.6992,0 47,-4.7735 64.0078,-14.4219 M 1235.332,1306.539 c -28.9414,-16.8086 -51.4844,-43.7461 -67.6289,-80.9062 -16.2383,-37.1563 -24.2617,-84.3477 -24.2617,-141.5625 0,-58.9414 7.832,-107.94527 23.5898,-147.01167 15.7657,-39.0703 38.4961,-68.3946 68.3008,-87.98051 29.8047,-19.48439 65.9141,-29.22659 108.1367,-29.22659 42.2149,0 78.1367,9.5508 107.7461,28.84769 29.6133,19.3008 52.1524,47.1914 67.6328,83.77731 15.5664,36.6758 23.3047,82.71877 23.3047,138.31637 0,56.7383 -7.3554,104.2149 -22.0625,142.4219 -14.6172,38.3047 -37.0625,67.6289 -67.0625,87.9766 -29.9883,20.3476 -67.8203,30.5703 -113.2851,30.5703 -40.6016,0 -75.3672,-8.4063 -104.4102,-25.2227 m 294.5,-173.5625 v -115.2968 m 0,-110.99607 v -69.6367 h 146.5313 V 1313.7031 H 1529.832 v -69.7305" fill-rule="nonzero" fill-opacity="1" fill="#FFFFFF"/>
    <path id="path5" d="m 2962.6289,1193.4453 c 17,-9.6524 29.7031,-24.0742 38.207,-43.3711 8.5,-19.1992 12.7031,-43.7461 12.7031,-73.457 0,-29.7071 -4.2031,-54.543 -12.7031,-74.3203 -8.5039,-19.85937 -21.3984,-34.67187 -38.7851,-44.60548 -17.4766,-9.93359 -38.7813,-14.8047 -64,-14.8047 -36.0118,0 -62.754,10.793 -80.1407,32.5742 -17.3867,21.7774 -26.0781,55.68748 -26.0781,102.01948 0,45.086 8.5977,78.1368 25.793,99.0547 17.1914,20.9219 44.1289,31.3321 81,31.3321 25.6992,0 46.9961,-4.7735 64.0039,-14.4219 m -243.4883,113.0937 c -28.9492,-16.8086 -51.4883,-43.7461 -67.6328,-80.9062 -16.1445,-37.1563 -24.2656,-84.3477 -24.2656,-141.5625 0,-58.9414 7.8359,-107.94527 23.5976,-147.01167 15.7617,-39.0703 38.4961,-68.3946 68.3008,-87.98051 29.8047,-19.48439 65.9102,-29.22659 108.1328,-29.22659 42.2188,0 78.1367,9.5508 107.75,28.84769 29.6094,19.3008 52.1484,47.1914 67.6289,83.77731 15.5664,36.6758 23.3047,82.71877 23.3047,138.31637 0,56.7383 -7.3516,104.2149 -22.0625,142.4219 -14.6172,38.3047 -37.0625,67.6289 -67.0586,87.9766 -29.9961,20.3476 -67.8242,30.5703 -113.2891,30.5703 -40.6015,0 -75.3671,-8.4063 -104.4062,-25.2227 m 294.4961,-173.5625 v -115.2968 m 0,-110.99607 v -69.6367 h 146.5312 v 476.65617 h -146.5312 v -69.7305" fill-rule="nonzero" fill-opacity="1" fill="#FFFFFF"/>
    <path id="path6" d="m 2190.9336,1127.8359 c 0,-49.0039 -31.8086,-62.8515 -85.1094,-62.8515 h -246.543 v 126.5664 h 246.543 c 53.3008,0 85.1094,-14.711 85.1094,-63.7149 M 1859.2812,951.50002 h 223.6211 c 50.336,0 83.5821,-12.9883 83.5821,-59.4102 0,-45.5703 -33.2461,-58.4609 -83.5821,-58.4609 h -223.6211 z m 486.3086,196.96868 c 0,104.1211 -80.6289,165.2578 -207.9531,165.2578 H 1709.789 V 711.44922 h 398.2344 c 127.3281,0 207.9531,59.3242 207.9531,155.7031 0,67.918 -40.6953,127.336 -118.3554,132.4922 81.3867,6.01948 147.9687,55.88278 147.9687,148.82418" fill-rule="nonzero" fill-opacity="1" fill="#FFFFFF"/>
    <path id="path7" d="m 2470.7304,965.31642 c 11.5625,-44.707 29.0391,-79.0938 52.5352,-103.2656 23.5039,-24.1641 52.8281,-36.1993 87.7852,-36.1993 h 26.2734 v 153.5039 h -62.1875 c -24.4492,0 -44.5117,4.1133 -60.1797,12.4219 -15.6641,8.30468 -27.6055,23.01558 -35.9141,44.03518 -8.3125,21.0117 -12.4179,50.2422 -12.4179,87.6875 h -13.1836 c 0,-60.7539 5.7305,-113.4805 17.289,-158.18358 m 37.0625,118.63668 v 229.7344 H 2362.0234 V 837.02732 h 145.7695 v 88.6446" fill-rule="nonzero" fill-opacity="1" fill="#FFFFFF"/>
    <path id="path8" d="m 969.41402,1417.7265 h -148.25 l -0.2851,389.7383 h 148.25 z m 0,0" fill-rule="nonzero" fill-opacity="1" fill="#FFFFFF"/>
    <path id="path9" d="m 1428.9219,1960.9101 h 137.0742 v -117.4922 h -137.0742 z m 0,0" fill-rule="nonzero" fill-opacity="1" fill="#FFFFFF"/>
    <path id="path10" d="m 2109.4922,1691.2187 c -31.4258,0 -57.3164,-0.8554 -66.8672,-0.8554 l -302.9024,-2.6758 c -27.6093,0 -49.957,-22.2539 -50.2461,-49.7696 -0.1875,-27.8906 29.5196,-53.871 57.3164,-53.871 l 310.0625,3.246 h 52.6368 z m 903.8359,-196.1992 v 191.5234 l 6.4023,-0.1914 c -173.2812,0 -186.1718,-191.2382 -186.1718,-191.2382 h -130.6797 v 192.1953 h -1.6211 c -55.2109,0 -94.7578,-15.2891 -123.1289,-37.0664 -15.7656,-12.1328 -27.9922,-26.3633 -37.543,-41.1719 -1.9101,-2.8633 -3.7226,-5.9219 -5.4453,-8.8789 -5.7305,-10.0352 -10.2187,-20.2539 -13.9453,-30.0899 -1.4336,-3.9179 -2.6758,-7.7421 -3.8164,-11.4687 -0.5781,-1.6211 -1.0547,-3.3399 -1.5352,-4.9609 -9.3554,-32.6719 -9.164,-58.5586 -9.164,-58.5586 h -145.1055 v 154.2695 c 0,20.918 -17,37.9258 -37.918,37.9258 h -62.664 v -191.9102 h -514.4844 c -195.9219,0 -199.5547,313.125 -3.6328,313.125 l 358.7812,0.5703 c -11.9375,27.8946 -28.2695,57.2188 -63.6133,80.6211 l 102.211,76.6094 c 69.4453,-39.832 103.5469,-99.0547 120.2617,-157.2305 v -2.8593 h 90.2695 c 5.7305,0 11.2696,-0.1954 16.7149,-0.5743 3.0547,-0.1914 6.0156,-0.6679 8.9765,-1.0547 3.5352,-0.3789 7.0743,-0.7617 10.5079,-1.4257 15.2851,-2.6797 29.3242,-7.2657 41.746,-14.0469 2.2891,-1.2422 4.3946,-2.7695 6.5899,-4.2031 1.9101,-1.2422 3.9141,-2.293 5.7344,-3.6289 7.8281,-5.8282 14.8007,-12.7032 20.7265,-20.7305 8.0196,-10.8906 13.8516,-23.3047 18.1485,-36.0117 13.9453,-40.8828 11.5547,-84.5352 11.5547,-84.8203 0.8632,1.6211 9.9375,99.5351 99.4414,144.4257 2.7695,1.4336 5.6367,2.7696 8.5976,4.0118 25.3164,11.082 56.2656,18.0586 94.6641,18.0586 h 139.3711 v -166.4961 c 0,48.1406 63.3281,166.4961 171.9414,166.9726 l 140.414,-1.1484 14.2305,-0.4805 v -310.5391 z m 0,0" fill-rule="nonzero" fill-opacity="1" fill="#FFFFFF"/>
    <path id="path11" d="m 1417.832,1494.8086 0.5703,192.7656 h -15.1875 c -198.3047,0 -202.8906,-192.1914 -202.8906,-192.1914 h -147.7773 v 147.4883 c 0,125.8984 -8.5899,165.8281 -80.61718,228.3906 l 119.78508,83.3906 c 96.8594,-96.7617 109.5625,-153.4023 109.5625,-318.4726 0,12.2265 30.7617,173.1836 196.1094,173.1836 h 168.6953 l 0.5742,-62.1836 -0.5742,-252.3711 z m 0,0" fill-rule="nonzero" fill-opacity="1" fill="#FFFFFF"/>
  </g>
</svg>
